<?xml version="1.0" standalone="no"?>
<!DOCTYPE svg PUBLIC "-//W3C//DTD SVG 20010904//EN"
 "http://www.w3.org/TR/2001/REC-SVG-20010904/DTD/svg10.dtd">
<svg version="1.0" xmlns="http://www.w3.org/2000/svg"
 width="768.000000pt" height="768.000000pt" viewBox="0 0 768.000000 768.000000"
 preserveAspectRatio="xMidYMid meet">
<metadata>
Created by potrace 1.11, written by Peter Selinger 2001-2013
</metadata>
<g transform="translate(0.000000,768.000000) scale(0.100000,-0.100000)"
fill="#000000" stroke="none">
<path d="M3295 7629 c323 -207 505 -491 566 -884 18 -117 16 -361 -5 -475 -84
-470 -401 -858 -921 -1127 -68 -35 -113 -64 -105 -67 8 -2 72 -20 141 -39 855
-239 1327 -795 1261 -1489 -34 -360 -184 -671 -467 -966 -190 -198 -374 -332
-629 -457 -479 -233 -914 -293 -1574 -216 -600 71 -932 72 -1434 5 l-128 -17
0 -949 0 -948 2140 0 2140 0 31 42 c68 92 104 207 119 382 5 55 9 1028 10
2161 2 1844 0 2068 -14 2140 -22 112 -55 162 -131 200 l-60 30 -195 -1 c-107
0 -207 -3 -222 -7 -52 -14 -54 12 -17 240 l32 205 121 -6 c263 -13 1826 -18
2246 -7 657 18 1211 51 1443 87 l37 6 0 1104 0 1104 -2232 0 -2233 0 80 -51z"/>
<path d="M1413 7509 c-36 -10 -58 -38 -74 -90 -17 -61 -56 -804 -79 -1499 -5
-173 -12 -399 -16 -502 -3 -104 -2 -188 2 -188 5 0 178 -14 384 -30 206 -17
436 -34 510 -39 l135 -10 133 64 c170 82 235 127 350 239 199 194 293 362 340
611 25 136 23 448 -5 575 -118 544 -533 813 -1338 870 -169 12 -299 11 -342
-1z"/>
<path d="M23 7473 l-23 -4 0 -2566 0 -2565 27 7 c72 18 191 72 259 117 113 76
170 167 211 337 13 57 16 258 24 1486 5 781 8 1758 6 2170 -3 675 -5 757 -21
817 -24 91 -63 143 -134 176 -52 24 -70 26 -192 28 -74 1 -145 0 -157 -3z"/>
<path d="M7662 4863 c-37 -263 -73 -575 -92 -778 -11 -126 -22 -231 -24 -233
-5 -5 -440 -41 -445 -37 -1 2 3 86 9 187 15 210 9 418 -15 532 -63 304 -240
359 -1160 360 -439 1 -525 -6 -600 -47 -55 -30 -82 -87 -95 -207 -9 -83 -80
-1851 -80 -2001 l0 -56 498 -6 c596 -7 666 -3 1220 69 l204 27 21 -21 21 -22
-63 -272 c-35 -150 -66 -277 -71 -281 -4 -5 -128 -3 -276 2 -333 13 -1064 14
-1199 1 -144 -14 -353 -43 -366 -51 -14 -8 -53 -1456 -45 -1649 6 -152 22
-257 48 -327 l19 -53 1255 0 1254 0 0 2475 c0 1361 -1 2475 -3 2475 -2 0 -9
-39 -15 -87z"/>
<path d="M1523 4741 c-160 -3 -294 -8 -296 -11 -6 -6 -37 -1391 -38 -1670 -1
-261 34 -377 150 -490 130 -127 324 -186 691 -211 496 -34 848 67 1096 315
185 184 281 411 304 714 19 243 -21 468 -115 657 -164 330 -467 545 -943 666
l-153 39 -202 -2 c-111 -1 -333 -4 -494 -7z"/>
</g>
</svg>
